<?xml version="1.0" standalone="no"?>
<!DOCTYPE svg PUBLIC "-//W3C//DTD SVG 20010904//EN"
 "http://www.w3.org/TR/2001/REC-SVG-20010904/DTD/svg10.dtd">
<svg version="1.0" xmlns="http://www.w3.org/2000/svg"
 width="340.000000pt" height="340.000000pt" viewBox="0 0 340.000000 340.000000"
 preserveAspectRatio="xMidYMid meet">
<metadata>
Created by potrace 1.15, written by Peter Selinger 2001-2017
</metadata>
<g transform="translate(0.000000,340.000000) scale(0.100000,-0.100000)"
fill="#6435C9" stroke="none">
<path d="M427 3183 c-4 -3 -7 -721 -7 -1595 l0 -1588 1275 0 1275 0 2 1063 3
1062 -405 -3 c-223 -1 -415 0 -428 3 l-22 5 2 530 3 530 -846 0 c-465 0 -849
-3 -852 -7z m1483 -1275 l0 -213 215 2 215 2 -2 -212 -3 -212 -212 -3 -213 -2
-1 -218 c-1 -119 -2 -302 -3 -407 l-1 -190 -207 -3 -208 -2 0 410 0 410 -215
0 -214 0 0 215 0 214 214 -2 215 -2 0 213 0 212 210 0 210 0 0 -212z"/>
<path d="M2334 2759 l1 -432 328 -3 328 -4 -12 23 c-7 12 -18 26 -25 30 -8 4
-14 14 -14 21 0 8 -7 16 -15 20 -8 3 -15 12 -15 20 0 7 -7 16 -15 20 -8 3 -15
12 -15 21 0 8 -4 15 -9 15 -4 0 -21 19 -37 43 -16 23 -33 47 -39 53 -5 6 -17
22 -25 34 -8 12 -22 30 -30 40 -8 10 -22 28 -30 41 -8 12 -23 29 -32 38 -10 8
-18 19 -18 24 0 9 -17 30 -42 55 -10 9 -18 21 -18 27 0 6 -8 18 -17 26 -10 9
-25 26 -33 38 -8 13 -22 31 -30 41 -8 10 -22 28 -30 41 -8 12 -23 31 -32 41
-10 10 -18 21 -18 26 0 4 -13 22 -30 40 -16 18 -30 36 -30 40 0 4 -11 17 -24
29 l-24 23 2 -431z"/>
</g>
</svg>
