<?xml version="1.0" standalone="no"?>
<!DOCTYPE svg PUBLIC "-//W3C//DTD SVG 20010904//EN"
 "http://www.w3.org/TR/2001/REC-SVG-20010904/DTD/svg10.dtd">
<svg version="1.0" xmlns="http://www.w3.org/2000/svg"
 width="425.000000pt" height="425.000000pt" viewBox="0 0 425.000000 425.000000"
 preserveAspectRatio="xMidYMid meet">
<metadata>
Created by potrace 1.15, written by Peter Selinger 2001-2017
</metadata>
<g transform="translate(0.000000,425.000000) scale(0.100000,-0.100000)"
fill="#6435C9" stroke="none">
<path d="M981 3983 c-333 -3 -437 -6 -443 -16 -4 -6 -8 -902 -8 -1989 l0
-1978 1590 0 1590 0 0 883 c0 485 3 1081 7 1325 l6 442 -536 0 -537 0 0 670 0
670 -617 -2 c-340 -2 -814 -4 -1052 -5z m1343 -1079 c13 -5 16 -26 16 -130 0
-76 -4 -124 -10 -124 -5 0 -10 -13 -10 -30 0 -16 -4 -30 -9 -30 -5 0 -11 -48
-15 -107 -9 -176 -18 -253 -27 -253 -5 0 -9 -11 -9 -25 0 -14 -4 -25 -10 -25
-5 0 -10 -14 -10 -30 0 -18 -6 -33 -15 -36 -8 -4 -15 -12 -15 -20 0 -8 -20
-34 -45 -58 -25 -25 -45 -48 -45 -51 0 -12 -29 -35 -44 -35 -8 0 -18 -4 -21
-10 -3 -5 -15 -10 -26 -10 -11 0 -22 -7 -25 -15 -4 -8 -13 -15 -21 -15 -8 0
-21 -7 -29 -15 -9 -8 -29 -15 -45 -15 l-29 0 0 -125 0 -125 35 0 c24 0 35 -5
35 -15 0 -9 9 -15 24 -15 19 0 25 -7 31 -36 12 -67 -11 -144 -44 -144 -6 0
-11 -4 -11 -10 0 -5 -16 -10 -35 -10 l-35 0 0 -140 c0 -87 4 -140 10 -140 6 0
10 -7 10 -15 0 -8 9 -15 20 -15 13 0 20 -7 20 -19 0 -10 13 -29 30 -42 16 -13
30 -30 30 -36 0 -7 7 -13 15 -13 8 0 15 -6 15 -13 0 -7 16 -19 35 -26 24 -8
35 -19 35 -32 0 -10 5 -19 10 -19 6 0 10 -7 10 -15 0 -8 17 -19 42 -25 22 -7
47 -18 55 -26 8 -8 20 -14 26 -14 7 0 21 -11 31 -24 10 -14 31 -28 48 -31 31
-7 68 -37 68 -55 0 -5 8 -10 19 -10 25 0 71 -98 78 -167 l6 -53 -782 0 c-665
0 -785 2 -797 14 -16 17 -20 116 -4 116 6 0 10 11 10 24 0 25 16 36 56 36 13
0 32 9 41 20 10 11 25 20 35 20 10 0 18 7 18 15 0 8 7 15 15 15 8 0 15 4 15 9
0 5 8 12 19 16 25 8 61 40 61 54 0 6 7 11 15 11 8 0 15 4 15 9 0 5 13 14 29
20 15 7 34 23 41 37 8 13 21 24 31 24 9 0 19 7 23 15 3 8 14 15 23 15 10 0 26
9 36 20 9 11 26 20 37 20 14 0 20 7 20 21 0 12 13 33 30 49 29 27 29 28 36
172 8 164 3 198 -26 198 -11 0 -20 4 -20 9 0 5 -9 13 -20 16 -13 4 -20 15 -20
31 0 13 -4 24 -10 24 -5 0 -10 14 -10 30 0 17 5 30 10 30 6 0 10 5 10 10 0 23
50 60 80 60 16 0 30 5 30 10 0 6 7 10 15 10 12 0 15 18 15 98 0 109 -12 132
-70 132 -18 0 -39 10 -54 25 -14 14 -29 25 -35 25 -12 0 -71 31 -88 47 -7 6
-13 16 -13 22 0 6 -4 11 -9 11 -5 0 -14 14 -21 30 -7 17 -16 30 -21 30 -5 0
-9 7 -9 15 0 8 -4 15 -10 15 -5 0 -10 9 -10 20 0 11 -4 20 -10 20 -5 0 -13 18
-16 40 -4 26 -13 41 -25 45 -15 5 -19 16 -19 50 0 27 -5 45 -14 48 -9 4 -16
30 -21 76 -4 39 -11 71 -16 71 -5 0 -9 36 -9 79 0 44 -4 81 -9 83 -7 2 -18
247 -12 281 1 8 1222 10 1245 1z"/>
<path d="M2920 3448 l0 -538 218 0 c119 0 301 -3 405 -7 135 -4 187 -3 187 5
0 6 -13 27 -30 45 -16 19 -30 39 -30 45 0 6 -6 15 -12 19 -17 11 -58 69 -58
83 0 5 -4 10 -9 10 -7 0 -200 251 -343 446 -13 18 -65 87 -116 155 -51 68
-107 143 -125 167 -18 24 -44 58 -59 75 l-27 32 -1 -537z"/>
</g>
</svg>
